<svg xmlns="http://www.w3.org/2000/svg" xmlns:xlink="http://www.w3.org/1999/xlink" width="48" height="48" viewBox="0 0 48 48">
  <defs>
    <style>
      .cls-1 {
        fill: #f5f5f5;
      }

      .cls-2, .cls-3 {
        stroke: none;
      }

      .cls-3 {
        fill: #707070;
      }

      .cls-4 {
        filter: url(#Subtraction_6);
      }
    </style>
    <filter id="Subtraction_6" x="0" y="0" width="48" height="48" filterUnits="userSpaceOnUse">
      <feOffset dx="3" dy="3" input="SourceAlpha"/>
      <feGaussianBlur stdDeviation="3" result="blur"/>
      <feFlood flood-opacity="0.161"/>
      <feComposite operator="in" in2="blur"/>
      <feComposite in="SourceGraphic"/>
    </filter>
  </defs>
  <g id="cross" transform="translate(-319 -14)">
    <g class="cls-4" transform="matrix(1, 0, 0, 1, 319, 14)">
      <g id="Subtraction_6-2" data-name="Subtraction 6" class="cls-1" transform="translate(455 -29)">
        <path class="cls-2" d="M -433.9998168945313 64.49980163574219 C -437.8729553222656 64.49980163574219 -441.5143127441406 62.99155044555664 -444.2531127929688 60.25289154052734 C -446.9918212890625 57.5142822265625 -448.5001220703125 53.87319946289063 -448.5001220703125 50.00040054321289 C -448.5001220703125 46.12720108032227 -446.9918212890625 42.4858512878418 -444.2531127929688 39.74711227416992 C -441.5143432617188 37.00838851928711 -437.8729858398438 35.50009918212891 -433.9998168945313 35.50009918212891 C -430.1266784667969 35.50009918212891 -426.4854736328125 37.00838088989258 -423.7470092773438 39.74710083007813 C -421.008544921875 42.48577880859375 -419.5003967285156 46.12714004516602 -419.5003967285156 50.00040054321289 C -419.5003967285156 53.87327194213867 -421.008544921875 57.51433944702148 -423.7470092773438 60.25289916992188 C -426.4855346679688 62.99156188964844 -430.1267395019531 64.49980163574219 -433.9998168945313 64.49980163574219 Z M -433.9998168945313 52.99261093139648 L -428.6392517089844 58.3531494140625 L -428.2857666015625 58.70664215087891 L -427.9322204589844 58.35322189331055 L -425.646240234375 56.06811904907227 L -425.2925109863281 55.71453857421875 L -425.6461791992188 55.36091995239258 L -431.0075988769531 50.0003662109375 L -425.6461791992188 44.63895034790039 L -425.2925415039063 44.28533172607422 L -425.646240234375 43.93178176879883 L -427.9322204589844 41.64667892456055 L -428.2857666015625 41.29325866699219 L -428.6392517089844 41.64675140380859 L -433.9998168945313 47.00730133056641 L -439.3603515625 41.64675140380859 L -439.7138366699219 41.29325866699219 L -440.0673828125 41.64667892456055 L -442.3533935546875 43.93178176879883 L -442.7070617675781 44.28530120849609 L -442.3534851074219 44.63893127441406 L -436.9928588867188 50.0003776550293 L -442.3534545898438 55.3609504699707 L -442.7070922851563 55.71456909179688 L -442.3533935546875 56.06811904907227 L -440.0673828125 58.35322189331055 L -439.7138366699219 58.70664215087891 L -439.3603515625 58.3531494140625 L -433.9998168945313 52.99261093139648 Z"/>
        <path class="cls-3" d="M -433.9998168945313 63.99980163574219 C -430.2602844238281 63.99980163574219 -426.7446594238281 62.54357147216797 -424.1005554199219 59.89936065673828 C -421.4565124511719 57.25522994995117 -420.0003967285156 53.73971939086914 -420.0003967285156 50.00040054321289 C -420.0003967285156 46.26068878173828 -421.45654296875 42.74488067626953 -424.1005859375 40.10063934326172 C -426.74462890625 37.45635986328125 -430.2602233886719 36.00009918212891 -433.9998168945313 36.00009918212891 C -437.7394409179688 36.00009918212891 -441.2552490234375 37.45637893676758 -443.8995361328125 40.10066986083984 C -446.5438537597656 42.74496078491211 -448.0001220703125 46.26076126098633 -448.0001220703125 50.00040054321289 C -448.0001220703125 53.73965072631836 -446.5438537597656 57.25514984130859 -443.8995666503906 59.89933013916016 C -441.2552185058594 62.54356002807617 -437.7394104003906 63.99980163574219 -433.9998168945313 63.99980163574219 M -433.9998168945313 53.69972991943359 L -439.0067749023438 58.70671081542969 L -439.7137451171875 59.41366958618164 L -440.4208679199219 58.70685195922852 L -442.7068786621094 56.42174911499023 L -443.4142456054688 55.71464157104492 L -442.7070007324219 55.00738906860352 L -437.699951171875 50.00033950805664 L -442.7070617675781 44.99245071411133 L -443.4142150878906 44.28520202636719 L -442.7068786621094 43.57815170288086 L -440.4208679199219 41.29304885864258 L -439.7137451171875 40.58623123168945 L -439.0067749023438 41.29319000244141 L -433.9998168945313 46.30017852783203 L -428.9928283691406 41.29319000244141 L -428.2858581542969 40.58621978759766 L -427.5787353515625 41.29306030273438 L -425.2927551269531 43.57815933227539 L -424.5853881835938 44.28525924682617 L -425.2926025390625 44.99251174926758 L -430.3004455566406 50.00035095214844 L -425.2926635742188 55.00733947753906 L -424.5853271484375 55.71458053588867 L -425.2927551269531 56.4217414855957 L -427.5787353515625 58.70684051513672 L -428.2858276367188 59.41368103027344 L -428.9928283691406 58.70671081542969 L -433.9998168945313 53.69972991943359 M -433.9998168945313 64.99980163574219 C -438.0065002441406 64.99980163574219 -441.7734375 63.43954086303711 -444.6066589355469 60.60644912719727 C -447.4398193359375 57.77341079711914 -449.0001220703125 54.00677108764648 -449.0001220703125 50.00040054321289 C -449.0001220703125 45.9936408996582 -447.4398193359375 42.22671890258789 -444.6066589355469 39.39355850219727 C -441.7734680175781 36.56040191650391 -438.0065307617188 35.00009918212891 -433.9998168945313 35.00009918212891 C -429.9931030273438 35.00009918212891 -426.2263488769531 36.56040191650391 -423.3934326171875 39.39355850219727 C -420.560546875 42.22666931152344 -419.0003967285156 45.99357986450195 -419.0003967285156 50.00040054321289 C -419.0003967285156 54.00683212280273 -420.560546875 57.77346038818359 -423.3934326171875 60.60644912719727 C -426.2264099121094 63.43954086303711 -429.9931640625 64.99980163574219 -433.9998168945313 64.99980163574219 Z M -433.9998168945313 52.2855110168457 L -433.9991149902344 52.28620910644531 L -428.2857055664063 57.99959945678711 L -425.9997253417969 55.71450042724609 L -431.7147216796875 50.00040054321289 L -425.9997253417969 44.285400390625 L -428.2857055664063 42.00030136108398 L -433.9998168945313 47.71440124511719 L -439.7138977050781 42.00030136108398 L -441.9999084472656 44.285400390625 L -436.2857971191406 50.00040054321289 L -441.9999084472656 55.71450042724609 L -439.7138977050781 57.99959945678711 L -434.0005187988281 52.28620910644531 L -433.9998168945313 52.2855110168457 Z"/>
      </g>
    </g>
  </g>
</svg>
