<svg xmlns="http://www.w3.org/2000/svg" xmlns:xlink="http://www.w3.org/1999/xlink" viewBox="0 0 40.42 47.561">
  <defs>
    <style>
      .cls-1 {
        fill: #b5b5b5;
      }

      .cls-2, .cls-3 {
        stroke: none;
      }

      .cls-3 {
        fill: #707070;
      }

      .cls-4 {
        filter: url(#left);
      }
    </style>
    <filter id="left" x="0" y="0" width="40.42" height="47.561" filterUnits="userSpaceOnUse">
      <feOffset dy="3" input="SourceAlpha"/>
      <feGaussianBlur stdDeviation="3" result="blur"/>
      <feFlood flood-opacity="0.161"/>
      <feComposite operator="in" in2="blur"/>
      <feComposite in="SourceGraphic"/>
    </filter>
  </defs>
  <g class="cls-4" transform="matrix(1, 0, 0, 1, 0, 0)">
    <g id="left-2" data-name="left" class="cls-1" transform="translate(26.92 71.52) rotate(180)">
      <path class="cls-2" d="M 2.004800081253052 64.40103912353516 L 2.004800081253052 57.80091094970703 L 2.004800081253052 57.30091094970703 L 1.504800200462341 57.30091094970703 L -4.000899791717529 57.30091094970703 L -4.000899791717529 44.03492736816406 L 1.504800200462341 44.03492736816406 L 2.004800081253052 44.03492736816406 L 2.004800081253052 43.53492736816406 L 2.004800081253052 37.08618927001953 L 17.17179107666016 50.72750854492188 L 2.004800081253052 64.40103912353516 Z"/>
      <path class="cls-3" d="M 2.504800081253052 63.27708053588867 L 16.42458724975586 50.72794342041016 L 2.504800081253052 38.20837020874023 L 2.504800081253052 43.53492736816406 L 2.504800081253052 44.53492736816406 L 1.504800200462341 44.53492736816406 L -3.500899791717529 44.53492736816406 L -3.500899791717529 56.80091094970703 L 1.504800200462341 56.80091094970703 L 2.504800081253052 56.80091094970703 L 2.504800081253052 57.80091094970703 L 2.504800081253052 63.27708053588867 M 1.504800200462341 65.52500152587891 L 1.504800200462341 57.80091094970703 L -4.500899791717529 57.80091094970703 L -4.500899791717529 43.53492736816406 L 1.504800200462341 43.53492736816406 L 1.504800200462341 35.9640007019043 L 17.91900062561035 50.72706985473633 L 1.504800200462341 65.52500152587891 Z"/>
    </g>
  </g>
</svg>
