<svg xmlns="http://www.w3.org/2000/svg" xmlns:xlink="http://www.w3.org/1999/xlink" width="37.233" height="38" viewBox="0 0 37.233 38">
  <defs>
    <filter id="Union_1" x="0" y="0" width="37.233" height="38" filterUnits="userSpaceOnUse">
      <feOffset dy="3" input="SourceAlpha"/>
      <feGaussianBlur stdDeviation="3" result="blur"/>
      <feFlood flood-opacity="0.161"/>
      <feComposite operator="in" in2="blur"/>
      <feComposite in="SourceGraphic"/>
    </filter>
  </defs>
  <g id="Group_27" data-name="Group 27" transform="translate(-289.767 -385)">
    <g transform="matrix(1, 0, 0, 1, 289.77, 385)" filter="url(#Union_1)">
      <g id="Union_1-2" data-name="Union 1" transform="translate(21.26 -29)" fill="#b5b5b5">
        <path d="M -3.022199630737305 54.49990081787109 C -5.216616630554199 54.49990081787109 -7.328848361968994 53.74321365356445 -9.022961616516113 52.35943984985352 L -7.711366176605225 50.85044479370117 C -6.382543563842773 51.9178352355957 -4.736400604248047 52.50019836425781 -3.022199630737305 52.50019836425781 C 1.112930297851563 52.50019836425781 4.477100372314453 49.1356201171875 4.477100372314453 45 C 4.477100372314453 40.8643798828125 1.112930297851563 37.49980163574219 -3.022199630737305 37.49980163574219 C -4.432769775390625 37.49980163574219 -5.812389850616455 37.89868927001953 -7.011889457702637 38.65333938598633 L -7.722879886627197 39.10065841674805 L -6.990699768066406 39.51237106323242 L -5.253610610961914 40.48915863037109 L -11.75529956817627 43.74979400634766 L -11.75529956817627 36.83318328857422 L -9.843029975891113 37.90848159790039 L -9.535129547119141 38.08161926269531 L -9.269060134887695 37.84925842285156 C -7.534469604492188 36.33438110351563 -5.315959453582764 35.50009918212891 -3.022199630737305 35.50009918212891 C 2.216060400009155 35.50009918212891 6.477700233459473 39.76174163818359 6.477700233459473 45 C 6.477700233459473 50.23825836181641 2.216060400009155 54.49990081787109 -3.022199630737305 54.49990081787109 Z" stroke="none"/>
        <path d="M -3.022199630737305 53.99990081787109 C 1.940360307693481 53.99990081787109 5.977700233459473 49.96255874633789 5.977700233459473 45 C 5.977700233459473 40.03744125366211 1.940360307693481 36.00009918212891 -3.022199630737305 36.00009918212891 C -5.194979667663574 36.00009918212891 -7.296689510345459 36.79056167602539 -8.940169334411621 38.22586059570313 L -9.4722900390625 38.69057846069336 L -10.08809947967529 38.34429931640625 L -11.25529956817627 37.68796539306641 L -11.25529956817627 42.93968200683594 L -6.3186354637146 40.46391677856445 L -7.235769748687744 39.94820022583008 L -8.700139999389648 39.12475967407227 L -7.278149604797363 38.23012924194336 C -5.99878978729248 37.42523956298828 -4.527109622955322 36.99980163574219 -3.022199630737305 36.99980163574219 C 1.388630390167236 36.99980163574219 4.977100372314453 40.58866882324219 4.977100372314453 45 C 4.977100372314453 49.41133117675781 1.388630390167236 53.00019836425781 -3.022199630737305 53.00019836425781 C -4.688992977142334 53.00019836425781 -6.295350074768066 52.48413848876953 -7.640049934387207 51.53058242797852 L -8.297699928283691 52.28721237182617 C -6.767950534820557 53.39751434326172 -4.927793979644775 53.99990081787109 -3.022199630737305 53.99990081787109 M -3.022199630737305 54.99990081787109 C -5.50439977645874 54.99990081787109 -7.886699676513672 54.08010101318359 -9.729899406433105 52.41059875488281 L -7.762499809265137 50.14709854125977 C -6.465599536895752 51.34230041503906 -4.782599449157715 52.00019836425781 -3.022199630737305 52.00019836425781 C 0.83700031042099 52.00019836425781 3.977100372314453 48.86009979248047 3.977100372314453 45 C 3.977100372314453 41.13990020751953 0.83700031042099 37.99980163574219 -3.022199630737305 37.99980163574219 C -4.349609851837158 37.99980163574219 -5.639369487762451 38.38056182861328 -6.745629787445068 39.0765495300293 L -4.188599586486816 40.51440048217773 L -12.25529956817627 44.55989837646484 L -12.25529956817627 35.97840118408203 L -9.597959518432617 37.47266006469727 C -7.784129619598389 35.88858032226563 -5.448219776153564 35.00009918212891 -3.022199630737305 35.00009918212891 C 2.492100238800049 35.00009918212891 6.977700233459473 39.48569869995117 6.977700233459473 45 C 6.977700233459473 50.51430130004883 2.492100238800049 54.99990081787109 -3.022199630737305 54.99990081787109 Z" stroke="none" fill="#707070"/>
      </g>
    </g>
  </g>
</svg>
